<?xml version="1.0" encoding="utf-8"?>
<!-- Generator: Adobe Illustrator 16.0.0, SVG Export Plug-In . SVG Version: 6.00 Build 0)  -->
<!DOCTYPE svg PUBLIC "-//W3C//DTD SVG 1.1//EN" "http://www.w3.org/Graphics/SVG/1.1/DTD/svg11.dtd">
<svg version="1.1" id="Layer_1" xmlns="http://www.w3.org/2000/svg" xmlns:xlink="http://www.w3.org/1999/xlink" x="0px" y="0px"
	 width="680px" height="220px" viewBox="0 0 680 220" enable-background="new 0 0 680 220" xml:space="preserve">
<g>
	<g>
		<path fill="#8BC53F" d="M62.144,67.325c20.187-3.671,30.85-18.093,33.942-31.904c9.484-3.299,22.489-1.771,30.062,0.856
			c7.004,2.429,17.256,14.12,13.664,27.598c-9.979,37.428-53.505,55.295-78.587,54.029C54.932,107.243,54.61,79.462,62.144,67.325"
			/>
		<path fill="#8BC53F" d="M169.108,114.102C158.598,89.03,146.34,60.651,146.34,60.651s-4.358,32.062-33.018,48.352
			c2.711,1.093,9.54,2.678,18.018,3.931c-9.872,8.748-27.747,22.221-57.907,21.294c15.093,16.526,42.242,15.563,52.259,14.69
			c10.727-1.52,22.954-15.152,28.005-34.047C159.253,114.918,164.908,114.889,169.108,114.102"/>
	</g>
	<g>
		<defs>
			<path id="SVGID_1_" d="M73.465,134.228c15.093,16.526,42.241,15.562,52.259,14.69c0.81-0.114,1.628-0.305,2.452-0.557
				c-11.548-3.702-21.465-9.705-28.745-17.23C92.003,133.268,83.406,134.532,73.465,134.228"/>
		</defs>
		<clipPath id="SVGID_2_">
			<use xlink:href="#SVGID_1_"  overflow="visible"/>
		</clipPath>
		
			<linearGradient id="SVGID_3_" gradientUnits="userSpaceOnUse" x1="-79.9653" y1="705.3867" x2="-78.9697" y2="705.3867" gradientTransform="matrix(54.9463 0 0 -54.9463 4467.2813 38899.3438)">
			<stop  offset="0" style="stop-color:#8BC53F"/>
			<stop  offset="0.1927" style="stop-color:#85BD3C"/>
			<stop  offset="0.4897" style="stop-color:#73A833"/>
			<stop  offset="0.8523" style="stop-color:#578425"/>
			<stop  offset="1" style="stop-color:#4A741F"/>
		</linearGradient>
		<rect x="73.465" y="131.131" clip-path="url(#SVGID_2_)" fill="url(#SVGID_3_)" width="54.711" height="19.623"/>
	</g>
	<g>
		<defs>
			<path id="SVGID_4_" d="M96.12,35.42c-3.095,13.812-13.756,28.234-33.943,31.904c-7.534,12.139-7.211,39.917-0.921,50.579
				c7.796,0.396,17.367-1.063,27.16-4.376c-1.368-4.065-2.105-8.323-2.105-12.709c0-24.397,22.561-44.833,52.891-50.265
				c-2.629-7.279-8.499-12.71-13.021-14.277c-4.505-1.565-10.935-2.738-17.396-2.738C104.379,33.539,99.961,34.083,96.12,35.42"/>
		</defs>
		<clipPath id="SVGID_5_">
			<use xlink:href="#SVGID_4_"  overflow="visible"/>
		</clipPath>
		
			<linearGradient id="SVGID_6_" gradientUnits="userSpaceOnUse" x1="-79.9751" y1="705.2588" x2="-78.9799" y2="705.2588" gradientTransform="matrix(83.0263 0 0 -83.0263 6696.5625 58630.9375)">
			<stop  offset="0" style="stop-color:#8BC53F"/>
			<stop  offset="0.1927" style="stop-color:#85BD3C"/>
			<stop  offset="0.4897" style="stop-color:#73A833"/>
			<stop  offset="0.8523" style="stop-color:#578425"/>
			<stop  offset="1" style="stop-color:#4A741F"/>
		</linearGradient>
		<rect x="54.643" y="33.539" clip-path="url(#SVGID_5_)" fill="url(#SVGID_6_)" width="84.559" height="84.76"/>
	</g>
	<g>
		<path fill="#8BC53F" d="M54.359,112.197c-9.29-36.762,10.249-72.973,47.007-82.264c12.935-3.267,39.187,0.379,42.457,20.565
			C145.345,12.726,95.096-4.775,63.07,3.318C19.687,14.282-6.596,58.341,4.369,101.725c10.76,42.568,53.646,68.529,95.963,59.279
			c5.728-1.254,15.035-3.023,22.528-7.422C80.497,158.096,59.184,131.285,54.359,112.197"/>
	</g>
	<g>
		<defs>
			<path id="SVGID_7_" d="M63.07,3.696C19.687,14.66-6.598,58.72,4.369,102.102c10.76,42.572,53.644,68.53,95.961,59.277
				c0.095-0.018,0.194-0.039,0.287-0.061c-24.306-5.18-45.329-24.588-52.158-51.606C39.096,72.657,59.76,35.476,94.618,26.667
				c14.086-3.562,32.666-0.528,46.473,8.217c-8.744-21.513-36.733-33.128-61.447-33.129C73.839,1.755,68.222,2.393,63.07,3.696"/>
		</defs>
		<clipPath id="SVGID_8_">
			<use xlink:href="#SVGID_7_"  overflow="visible"/>
		</clipPath>
		<defs>
			<filter id="Adobe_OpacityMaskFilter" filterUnits="userSpaceOnUse" x="-76.6" y="-59.465" width="287.695" height="291.315">
				<feColorMatrix  type="matrix" values="1 0 0 0 0  0 1 0 0 0  0 0 1 0 0  0 0 0 1 0"/>
			</filter>
		</defs>
		<mask maskUnits="userSpaceOnUse" x="-76.6" y="-59.465" width="287.695" height="291.315" id="SVGID_9_">
			<g filter="url(#Adobe_OpacityMaskFilter)">
				
					<linearGradient id="SVGID_10_" gradientUnits="userSpaceOnUse" x1="-79.8706" y1="705.042" x2="-78.8753" y2="705.042" gradientTransform="matrix(75.5376 -142.0656 -142.0656 -75.5376 106229.6875 42058.5)">
					<stop  offset="0" style="stop-color:#131313"/>
					<stop  offset="0.0179" style="stop-color:#1B1B1B"/>
					<stop  offset="0.1144" style="stop-color:#3F3F3F"/>
					<stop  offset="0.2115" style="stop-color:#5B5B5B"/>
					<stop  offset="0.3082" style="stop-color:#6F6F6F"/>
					<stop  offset="0.4046" style="stop-color:#7B7B7B"/>
					<stop  offset="0.5" style="stop-color:#808080"/>
					<stop  offset="0.5873" style="stop-color:#7B7B7B"/>
					<stop  offset="0.6762" style="stop-color:#6F6F6F"/>
					<stop  offset="0.7659" style="stop-color:#5B5B5B"/>
					<stop  offset="0.8561" style="stop-color:#3E3E3E"/>
					<stop  offset="0.946" style="stop-color:#1A1A1A"/>
					<stop  offset="1" style="stop-color:#000000"/>
				</linearGradient>
				<polygon clip-path="url(#SVGID_8_)" fill="url(#SVGID_10_)" points="-76.6,133.41 25.954,-59.465 211.096,38.976 
					108.54,231.851 				"/>
			</g>
		</mask>
		
			<linearGradient id="SVGID_11_" gradientUnits="userSpaceOnUse" x1="-79.8706" y1="705.042" x2="-78.8753" y2="705.042" gradientTransform="matrix(75.5376 -142.0656 -142.0656 -75.5376 106229.6875 42058.5)">
			<stop  offset="0" style="stop-color:#5A7F2F"/>
			<stop  offset="0.0119" style="stop-color:#628539"/>
			<stop  offset="0.0813" style="stop-color:#8BA56D"/>
			<stop  offset="0.1517" style="stop-color:#AFC19A"/>
			<stop  offset="0.222" style="stop-color:#CCD7BE"/>
			<stop  offset="0.292" style="stop-color:#E2E9DB"/>
			<stop  offset="0.3618" style="stop-color:#F2F5EF"/>
			<stop  offset="0.4312" style="stop-color:#FCFDFB"/>
			<stop  offset="0.5" style="stop-color:#FFFFFF"/>
			<stop  offset="0.5656" style="stop-color:#FCFCFB"/>
			<stop  offset="0.6324" style="stop-color:#F2F5EF"/>
			<stop  offset="0.6999" style="stop-color:#E1E8DA"/>
			<stop  offset="0.7677" style="stop-color:#CAD6BE"/>
			<stop  offset="0.836" style="stop-color:#ACC099"/>
			<stop  offset="0.9045" style="stop-color:#88A36B"/>
			<stop  offset="0.9721" style="stop-color:#5D8337"/>
			<stop  offset="1" style="stop-color:#4A741F"/>
		</linearGradient>
		<polygon clip-path="url(#SVGID_8_)" mask="url(#SVGID_9_)" fill="url(#SVGID_11_)" points="-76.6,133.41 25.954,-59.465 
			211.096,38.976 108.54,231.851 		"/>
	</g>
</g>
<g>
	<path fill="#8BC53F" d="M209.179,44.244c0,0.642,0.21,1.201,0.636,1.682c0.424,0.479,0.927,0.719,1.512,0.719h13.597
		c0.583,0,1.086,0.237,1.512,0.71c0.424,0.474,0.636,1.026,0.636,1.658v6.158c0,0.685-0.212,1.25-0.636,1.697
		c-0.426,0.448-0.929,0.672-1.512,0.672h-13.597c-0.585,0-1.088,0.239-1.512,0.715c-0.426,0.478-0.636,1.034-0.636,1.67v7.635
		c0,0.636,0.21,1.192,0.636,1.669c0.424,0.478,0.927,0.716,1.512,0.716h24.014c0.585,0,1.089,0.239,1.512,0.715
		c0.425,0.478,0.637,1.034,0.637,1.67v6.123c0,0.691-0.198,1.26-0.597,1.71c-0.398,0.452-0.915,0.677-1.552,0.677h-35.307
		c-0.585,0-1.088-0.239-1.512-0.716c-0.424-0.477-0.636-1.033-0.636-1.67V25.094c0-0.636,0.212-1.192,0.636-1.67
		s0.927-0.715,1.512-0.715h35.307c0.585,0,1.089,0.238,1.512,0.715c0.425,0.478,0.637,1.034,0.637,1.67v6.123
		c0,0.689-0.198,1.26-0.597,1.71c-0.398,0.451-0.915,0.675-1.552,0.675h-24.014c-0.585,0-1.088,0.242-1.512,0.721
		c-0.426,0.479-0.636,1.04-0.636,1.68V44.244z"/>
	<path fill="#8BC53F" d="M250.228,80.998c-0.589,0-1.096-0.238-1.523-0.715c-0.426-0.477-0.64-1.034-0.64-1.67V23.424
		c0-0.265,0.053-0.543,0.16-0.835c0.104-0.291,0.316-0.437,0.636-0.437c0.264,0,0.941,0.476,2.026,1.431
		c1.086,0.954,2.413,2.214,3.977,3.777c1.563,1.564,3.326,3.34,5.288,5.328s3.95,4.016,5.965,6.083
		c2.014,2.068,4.003,4.096,5.964,6.084c1.962,1.987,3.725,3.764,5.288,5.327c1.563,1.564,2.889,2.823,3.977,3.777
		c1.086,0.955,1.764,1.431,2.028,1.431c0.264,0,0.45-0.146,0.557-0.437c0.105-0.292,0.159-0.57,0.159-0.835V25.333
		c0-0.637,0.212-1.193,0.636-1.67c0.424-0.478,0.928-0.716,1.512-0.716h6.998c0.582,0,1.085,0.238,1.512,0.716
		c0.422,0.477,0.636,1.033,0.636,1.67v55.109c0,0.266-0.04,0.542-0.121,0.835c-0.08,0.291-0.277,0.438-0.595,0.438
		c-0.319,0-1.349-0.808-3.095-2.426c-1.745-1.617-3.85-3.63-6.308-6.043c-2.459-2.411-5.078-5.036-7.856-7.873
		c-2.777-2.835-5.395-5.46-7.855-7.872c-2.46-2.413-4.563-4.426-6.308-6.044c-1.746-1.617-2.776-2.426-3.093-2.426
		c-0.266,0-0.466,0.146-0.597,0.438c-0.132,0.291-0.197,0.57-0.197,0.835v28.31c0,0.689-0.215,1.26-0.643,1.71
		c-0.426,0.451-0.934,0.675-1.52,0.675H250.228z"/>
	<path fill="#8BC53F" d="M318.522,44.244c0,0.642,0.21,1.201,0.636,1.682c0.424,0.479,0.928,0.719,1.512,0.719h13.598
		c0.582,0,1.086,0.237,1.512,0.71c0.424,0.474,0.636,1.026,0.636,1.658v6.158c0,0.685-0.212,1.25-0.636,1.697
		c-0.426,0.448-0.93,0.672-1.512,0.672H320.67c-0.584,0-1.088,0.239-1.512,0.715c-0.426,0.478-0.636,1.034-0.636,1.67v7.635
		c0,0.636,0.21,1.192,0.636,1.669c0.424,0.478,0.928,0.716,1.512,0.716h24.015c0.584,0,1.088,0.239,1.512,0.715
		c0.424,0.478,0.636,1.034,0.636,1.67v6.123c0,0.691-0.198,1.26-0.596,1.71c-0.398,0.452-0.916,0.677-1.552,0.677h-35.308
		c-0.584,0-1.088-0.239-1.512-0.716c-0.424-0.477-0.636-1.033-0.636-1.67V25.094c0-0.636,0.212-1.192,0.636-1.67
		s0.928-0.715,1.512-0.715h35.308c0.584,0,1.088,0.238,1.512,0.715s0.636,1.034,0.636,1.67v6.123c0,0.689-0.198,1.26-0.596,1.71
		c-0.398,0.451-0.916,0.675-1.552,0.675H320.67c-0.584,0-1.088,0.242-1.512,0.721c-0.426,0.479-0.636,1.04-0.636,1.68V44.244z"/>
	<path fill="#8BC53F" d="M358.841,81.079c-0.637,0-1.153-0.225-1.552-0.677c-0.398-0.45-0.597-1.021-0.597-1.71V25.333
		c0-0.637,0.212-1.193,0.637-1.67c0.424-0.478,0.927-0.716,1.512-0.716h21.074c2.702,0,5.221,0.478,7.554,1.431
		c2.332,0.955,4.333,2.306,6.003,4.056c1.671,1.75,2.982,3.871,3.938,6.363c0.954,2.492,1.431,5.275,1.431,8.35
		c0,3.87-0.743,7.209-2.225,10.019c-1.486,2.812-3.66,5.276-6.523,7.396c-0.316,0.267-0.584,0.504-0.794,0.717
		c-0.212,0.211-0.319,0.556-0.319,1.033c0,0.425,0.291,1.102,0.876,2.028c0.582,0.929,1.312,1.988,2.188,3.181
		c0.874,1.193,1.814,2.466,2.823,3.818c1.006,1.351,1.948,2.611,2.82,3.777c0.876,1.167,1.604,2.2,2.188,3.102
		c0.583,0.901,0.876,1.537,0.876,1.908c0,0.372-0.133,0.624-0.398,0.756c-0.265,0.132-0.53,0.199-0.794,0.199h-9.225
		c-1.273,0-2.306-0.424-3.103-1.273c-1.007-1.06-1.936-2.228-2.783-3.499c-0.849-1.271-1.683-2.557-2.505-3.856
		c-0.822-1.298-1.645-2.611-2.465-3.937c-0.822-1.325-1.684-2.545-2.585-3.659c-0.37-0.477-0.888-0.914-1.55-1.312
		c-0.663-0.398-1.288-0.597-1.87-0.597h-3.42c-0.952,0-1.576,0.452-1.868,1.352c-0.291,0.902-0.451,2.016-0.478,3.34
		c-0.027,1.326,0.04,2.783,0.2,4.374c0.159,1.591,0.225,3.049,0.198,4.374c-0.027,1.326-0.198,2.438-0.517,3.34
		c-0.317,0.901-0.928,1.353-1.829,1.353H358.841z M379.945,52.052c2.27,0,4.104-0.848,5.505-2.545
		c1.399-1.696,2.098-3.817,2.098-6.361c0-2.227-0.528-4.347-1.584-6.362c-0.845-1.379-1.94-2.213-3.288-2.505
		c-1.347-0.292-2.706-0.438-4.078-0.438h-8.474c-0.581,0-1.082,0.239-1.504,0.717c-0.425,0.476-0.635,1.033-0.635,1.67v13.438
		c0,0.689,0.21,1.26,0.635,1.71c0.422,0.452,0.923,0.676,1.504,0.676H379.945z"/>
	<path fill="#8BC53F" d="M433.91,81.873c-2.813,0-5.543-0.504-8.193-1.511c-2.65-1.006-5.102-2.398-7.354-4.174
		c-2.256-1.776-4.257-3.883-6.006-6.322c-1.749-2.438-3.128-5.09-4.135-7.953c-0.743-2.28-1.181-4.334-1.312-6.164
		c-0.134-1.828-0.2-3.936-0.2-6.322c0-1.377,0.187-2.822,0.557-4.333s0.797-2.875,1.274-4.096
		c2.385-6.096,5.87-10.827,10.456-14.194c4.585-3.366,9.848-5.05,15.784-5.05c8.058,0,14.924,3.181,20.598,9.542
		c0.424,0.425,0.901,1.008,1.433,1.751c0.528,0.743,0.794,1.43,0.794,2.067c0,0.425-0.079,0.755-0.24,0.994
		c-0.158,0.239-0.37,0.492-0.636,0.756c-0.316,0.266-0.822,0.636-1.51,1.113c-0.689,0.477-1.406,0.941-2.146,1.391
		c-0.744,0.452-1.474,0.849-2.188,1.194c-0.716,0.345-1.232,0.516-1.55,0.516c-0.741,0-1.377-0.318-1.904-0.954
		c-0.952-1.006-1.878-1.935-2.777-2.784c-0.899-0.847-1.851-1.576-2.854-2.187c-1.007-0.609-2.063-1.085-3.174-1.431
		c-1.112-0.345-2.38-0.517-3.807-0.517c-2.221,0-4.337,0.478-6.348,1.432c-2.009,0.954-3.792,2.24-5.353,3.856
		c-1.562,1.619-2.805,3.526-3.727,5.726c-0.928,2.201-1.39,4.547-1.39,7.039c0,1.22,0.064,2.425,0.198,3.618
		c0.131,1.193,0.41,2.373,0.834,3.539c1.479,3.657,3.567,6.587,6.264,8.787c2.697,2.201,5.871,3.301,9.521,3.301
		c2.378,0,4.745-0.557,7.099-1.67c2.354-1.114,4.297-2.677,5.831-4.691c0.264-0.371,0.608-0.888,1.03-1.552
		c0.422-0.662,0.637-1.204,0.637-1.629c0-0.955-0.507-1.431-1.513-1.431h-15.27c-0.582,0-1.086-0.239-1.51-0.716
		c-0.426-0.478-0.635-1.033-0.635-1.67v-6.283c0-0.636,0.209-1.192,0.635-1.669c0.424-0.477,0.928-0.716,1.51-0.716h27.357
		c1.06,0,1.71,0.412,1.947,1.232c0.24,0.823,0.358,1.684,0.358,2.584c0,7.264-1.618,13.241-4.85,17.933
		c-3.235,4.692-7.901,8.151-13.997,10.378c-1.538,0.582-3.102,0.94-4.691,1.074C437.168,81.807,435.552,81.873,433.91,81.873z"/>
	<path fill="#8BC53F" d="M482.418,44.244c0,0.642,0.209,1.201,0.636,1.682c0.424,0.479,0.927,0.719,1.512,0.719h13.597
		c0.583,0,1.086,0.237,1.512,0.71c0.424,0.474,0.637,1.026,0.637,1.658v6.158c0,0.685-0.213,1.25-0.637,1.697
		c-0.426,0.448-0.929,0.672-1.512,0.672h-13.597c-0.585,0-1.088,0.239-1.512,0.715c-0.427,0.478-0.636,1.034-0.636,1.67v7.635
		c0,0.636,0.209,1.192,0.636,1.669c0.424,0.478,0.927,0.716,1.512,0.716h24.014c0.585,0,1.088,0.239,1.513,0.715
		c0.424,0.478,0.636,1.034,0.636,1.67v6.123c0,0.691-0.198,1.26-0.597,1.71c-0.398,0.452-0.915,0.677-1.552,0.677h-35.307
		c-0.584,0-1.089-0.239-1.512-0.716c-0.424-0.477-0.636-1.033-0.636-1.67V25.094c0-0.636,0.212-1.192,0.636-1.67
		c0.423-0.478,0.928-0.715,1.512-0.715h35.307c0.585,0,1.088,0.238,1.513,0.715c0.424,0.478,0.636,1.034,0.636,1.67v6.123
		c0,0.689-0.198,1.26-0.597,1.71c-0.398,0.451-0.915,0.675-1.552,0.675h-24.014c-0.585,0-1.088,0.242-1.512,0.721
		c-0.427,0.479-0.636,1.04-0.636,1.68V44.244z"/>
	<path fill="#8BC53F" d="M531.469,80.919c-0.581,0-1.08-0.239-1.502-0.715c-0.422-0.478-0.631-1.034-0.631-1.67V36.068
		c0-0.583-0.134-1.046-0.397-1.392c-0.266-0.344-0.597-0.607-0.994-0.795c-0.398-0.185-0.834-0.305-1.312-0.358
		c-0.479-0.053-0.93-0.079-1.354-0.079c-1.22,0-2.413,0.079-3.578,0.239c-1.167,0.158-2.359,0.238-3.578,0.238
		c-0.427,0-0.876-0.026-1.352-0.08c-0.477-0.051-0.915-0.158-1.313-0.318c-0.396-0.158-0.729-0.41-0.993-0.755
		c-0.268-0.345-0.398-0.835-0.398-1.472v-6.123c0-0.636,0.21-1.192,0.636-1.67c0.425-0.477,0.928-0.715,1.512-0.715h37.377
		c0.582,0,1.085,0.239,1.51,0.715c0.423,0.478,0.636,1.034,0.636,1.67v6.123c0,0.69-0.198,1.261-0.598,1.71
		c-0.396,0.452-0.912,0.677-1.548,0.677h-10.816c-0.585,0-1.088,0.238-1.512,0.715s-0.637,1.034-0.637,1.67v42.466
		c0,0.689-0.211,1.26-0.631,1.71c-0.422,0.45-0.921,0.675-1.5,0.675H531.469z"/>
	<path fill="#8BC53F" d="M582.379,70.581c1.908,0,3.748-0.37,5.525-1.113c1.775-0.743,3.114-2.199,4.016-4.374v-1.829
		c-0.371-0.688-0.664-1.245-0.874-1.67c-0.214-0.424-0.584-0.901-1.113-1.432c-0.796-0.742-1.816-1.299-3.063-1.67
		c-1.245-0.371-2.622-0.688-4.134-0.954c-1.51-0.265-3.115-0.542-4.812-0.835c-1.697-0.291-3.406-0.716-5.129-1.272
		c-1.724-0.557-3.42-1.298-5.09-2.227c-1.67-0.927-3.222-2.187-4.651-3.778c-1.221-1.377-2.108-2.928-2.665-4.652
		c-0.557-1.722-0.834-3.539-0.834-5.447c0-3.286,0.608-6.056,1.828-8.31c1.219-2.253,2.796-4.068,4.731-5.447
		s4.149-2.359,6.642-2.943c2.49-0.582,5.01-0.874,7.554-0.874c1.696,0,3.248,0.093,4.652,0.278c1.404,0.187,2.77,0.478,4.095,0.875
		c1.325,0.398,2.638,0.914,3.938,1.551c1.297,0.636,2.69,1.405,4.174,2.306c0.478,0.318,1.113,0.729,1.91,1.232
		c0.794,0.504,1.193,1.153,1.193,1.948c0,0.425-0.24,1.087-0.718,1.988c-0.476,0.901-1.032,1.815-1.668,2.743
		c-0.638,0.928-1.3,1.738-1.989,2.427s-1.246,1.033-1.67,1.033c-0.531,0-0.996-0.146-1.392-0.437
		c-0.398-0.291-0.782-0.569-1.152-0.835c-1.81-1.166-3.713-2.08-5.708-2.744c-1.998-0.662-4.032-0.994-6.106-0.994
		c-0.801,0-1.731,0.079-2.796,0.239c-1.063,0.158-2.049,0.45-2.953,0.875c-0.904,0.425-1.677,1.008-2.314,1.75
		c-0.639,0.743-0.957,1.697-0.957,2.863c0,0.743,0.158,1.432,0.475,2.067c1.221,1.325,2.851,2.306,4.892,2.942
		c2.041,0.636,4.24,1.207,6.6,1.71c2.36,0.504,4.76,1.061,7.199,1.67c2.437,0.61,4.623,1.539,6.56,2.784
		c1.935,1.247,3.526,2.956,4.771,5.128c1.245,2.175,1.869,5.064,1.869,8.669c0,3.393-0.582,6.242-1.747,8.548
		c-1.166,2.306-2.712,4.163-4.645,5.567c-1.929,1.405-4.152,2.413-6.666,3.021c-2.515,0.609-5.095,0.914-7.739,0.914
		c-3.863,0-7.449-0.516-10.757-1.55c-3.308-1.035-6.601-2.716-9.882-5.05c-0.529-0.423-1.019-0.835-1.468-1.232
		c-0.45-0.397-0.676-0.994-0.676-1.789c0-0.371,0.159-0.888,0.478-1.551c0.316-0.662,0.701-1.364,1.153-2.107
		c0.449-0.742,0.901-1.432,1.351-2.068c0.449-0.636,0.809-1.113,1.074-1.431c0.266-0.371,0.504-0.623,0.716-0.756
		c0.211-0.132,0.53-0.198,0.954-0.198c0.212,0,0.876,0.332,1.987,0.993c1.113,0.664,2.492,1.406,4.138,2.227
		c1.642,0.822,3.419,1.564,5.327,2.227C578.719,70.25,580.576,70.581,582.379,70.581z"/>
	<path fill="#8BC53F" d="M614.265,80.919c-0.585,0-1.089-0.239-1.512-0.715c-0.425-0.478-0.637-1.034-0.637-1.67V25.173
		c0-0.636,0.212-1.192,0.637-1.67c0.423-0.477,0.927-0.715,1.512-0.715h6.997c0.583,0,1.086,0.239,1.512,0.715
		c0.424,0.478,0.637,1.034,0.637,1.67v19.484c0,0.265,0.039,0.53,0.118,0.795c0.079,0.266,0.251,0.398,0.518,0.398
		c0.104,0,0.607-0.478,1.512-1.432c0.898-0.954,1.986-2.16,3.258-3.619c1.274-1.458,2.638-3.061,4.098-4.811
		c1.456-1.75,2.849-3.406,4.175-4.971c1.323-1.563,2.465-2.943,3.42-4.135c0.952-1.192,1.563-1.974,1.828-2.346
		c0.425-0.529,0.98-0.954,1.67-1.272c0.688-0.318,1.324-0.477,1.908-0.477h9.781c0.213,0,0.449,0.054,0.716,0.159
		c0.265,0.107,0.397,0.318,0.397,0.637c0,0.159-0.424,0.769-1.271,1.829c-0.848,1.062-1.922,2.36-3.222,3.897
		c-1.299,1.538-2.73,3.181-4.293,4.93c-1.565,1.75-3.049,3.419-4.454,5.009c-1.405,1.591-2.637,2.982-3.696,4.175
		c-1.063,1.193-1.75,1.976-2.069,2.346c-0.423,0.425-0.636,1.061-0.636,1.908c0,0.637,0.131,1.194,0.398,1.67
		c0.422,0.689,1.218,1.869,2.385,3.539c1.165,1.669,2.491,3.592,3.978,5.766c1.483,2.174,3.047,4.453,4.691,6.838
		c1.642,2.386,3.153,4.612,4.532,6.681c1.377,2.067,2.504,3.816,3.38,5.248c0.874,1.432,1.312,2.28,1.312,2.545
		c0,0.372-0.132,0.624-0.397,0.755c-0.266,0.134-0.557,0.199-0.874,0.199h-9.544c-0.584,0-1.207-0.185-1.868-0.557
		c-0.664-0.37-1.153-0.821-1.472-1.352l-13.916-20.914c-0.371-0.529-0.848-0.795-1.431-0.795c-0.531,0-0.955,0.212-1.273,0.636
		c-0.849,0.903-1.671,1.869-2.466,2.903c-0.794,1.034-1.191,2.24-1.191,3.619v14.076c0,0.689-0.213,1.26-0.637,1.71
		c-0.426,0.45-0.929,0.675-1.512,0.675H614.265z"/>
	<path fill="#8BC53F" d="M668.976,80.919c-0.584,0-1.087-0.239-1.512-0.715c-0.424-0.478-0.636-1.034-0.636-1.67V25.173
		c0-0.636,0.212-1.192,0.636-1.67c0.425-0.477,0.928-0.715,1.512-0.715h6.998c0.582,0,1.085,0.239,1.512,0.715
		c0.422,0.478,0.636,1.034,0.636,1.67v53.361c0,0.689-0.2,1.26-0.597,1.71c-0.397,0.45-0.915,0.675-1.551,0.675H668.976z"/>
	<path fill="#A6A8AB" d="M239.636,125.859c0,5.088-1.221,9.277-3.659,12.564s-5.805,5.566-10.099,6.838
		c-2.438,0.744-4.932,1.088-7.476,1.035c-2.545-0.053-5.089-0.08-7.633-0.08c-0.585,0-1.022,0.158-1.314,0.477
		c-0.291,0.318-0.517,0.717-0.675,1.193c-0.159,0.478-0.252,0.981-0.277,1.511c-0.028,0.53-0.04,1.034-0.04,1.512
		c0,1.271,0.04,2.532,0.119,3.776c0.079,1.246,0.118,2.506,0.118,3.777c0,0.478-0.014,0.982-0.039,1.511
		c-0.027,0.531-0.104,1.034-0.237,1.511c-0.131,0.478-0.354,0.876-0.67,1.193c-0.317,0.318-0.737,0.477-1.264,0.477h-7.03
		c-0.578,0-1.079-0.238-1.499-0.715c-0.422-0.478-0.633-1.034-0.633-1.67v-53.36c0-0.636,0.213-1.193,0.637-1.669
		c0.422-0.478,0.925-0.716,1.508-0.716h19.128c2.752,0,5.399,0.464,7.939,1.392c2.538,0.928,4.786,2.281,6.744,4.056
		c1.959,1.777,3.507,3.951,4.644,6.521C239.067,119.563,239.636,122.519,239.636,125.859z M228.343,125.859
		c0-3.182-0.918-5.633-2.754-7.356c-1.837-1.724-4.113-2.585-6.827-2.585h-7.984c-0.587,0-1.092,0.239-1.518,0.715
		c-0.426,0.479-0.639,1.035-0.639,1.671v14.632c0,0.637,0.213,1.193,0.639,1.671s0.931,0.715,1.518,0.715h9.423
		c2.554,0,4.549-0.86,5.987-2.585C227.624,131.016,228.343,128.723,228.343,125.859z"/>
	<path fill="#A6A8AB" d="M282.102,133.254c0-4.188,0.78-8.071,2.346-11.649c1.563-3.579,3.657-6.692,6.282-9.345
		c2.623-2.65,5.619-4.731,8.985-6.242c3.366-1.512,6.879-2.267,10.538-2.267c3.763,0,7.354,0.769,10.774,2.307
		c3.419,1.538,6.429,3.645,9.025,6.321c2.598,2.679,4.664,5.859,6.203,9.543c1.538,3.686,2.307,7.675,2.307,11.968
		c0,4.294-0.769,8.284-2.307,11.97c-1.539,3.685-3.592,6.878-6.163,9.582s-5.567,4.824-8.987,6.361
		c-3.417,1.537-7.037,2.307-10.853,2.307c-3.925,0-7.597-0.783-11.017-2.346c-3.417-1.563-6.4-3.738-8.945-6.521
		s-4.547-6.043-6.004-9.781C282.828,141.724,282.102,137.655,282.102,133.254z M293.393,134.289c0,2.492,0.463,4.85,1.393,7.076
		c0.927,2.227,2.16,4.189,3.697,5.885c1.537,1.697,3.326,3.035,5.367,4.016c2.041,0.982,4.176,1.472,6.403,1.472
		c2.278,0,4.452-0.503,6.521-1.511c2.068-1.006,3.857-2.358,5.367-4.055c1.512-1.697,2.716-3.699,3.619-6.005
		c0.899-2.306,1.352-4.732,1.352-7.277c0-2.544-0.452-4.956-1.352-7.236c-0.903-2.278-2.107-4.267-3.619-5.964
		c-1.51-1.696-3.299-3.033-5.367-4.016c-2.068-0.98-4.242-1.471-6.521-1.471c-2.388,0-4.612,0.504-6.681,1.511
		s-3.857,2.374-5.367,4.095c-1.513,1.725-2.693,3.752-3.539,6.084C293.816,129.227,293.393,131.691,293.393,134.289z"/>
	<path fill="#A6A8AB" d="M386.99,163.234c-0.636,0-1.153-0.225-1.552-0.676c-0.398-0.45-0.597-1.021-0.597-1.71v-53.36
		c0-0.637,0.212-1.192,0.637-1.67c0.423-0.478,0.927-0.716,1.512-0.716h21.074c2.702,0,5.221,0.477,7.554,1.431
		c2.332,0.955,4.333,2.306,6.003,4.056s2.982,3.871,3.938,6.362c0.954,2.493,1.43,5.275,1.43,8.351
		c0,3.869-0.742,7.209-2.225,10.019c-1.486,2.812-3.659,5.276-6.522,7.396c-0.317,0.267-0.584,0.504-0.794,0.716
		c-0.213,0.212-0.319,0.557-0.319,1.033c0,0.425,0.291,1.102,0.876,2.027c0.582,0.929,1.312,1.988,2.188,3.182
		c0.874,1.193,1.814,2.465,2.823,3.817c1.006,1.352,1.946,2.611,2.82,3.777c0.876,1.167,1.604,2.2,2.188,3.102
		c0.583,0.901,0.876,1.538,0.876,1.907c0,0.372-0.133,0.625-0.397,0.757c-0.267,0.132-0.531,0.198-0.795,0.198h-9.225
		c-1.274,0-2.306-0.424-3.104-1.272c-1.006-1.06-1.935-2.227-2.782-3.499c-0.849-1.271-1.683-2.557-2.505-3.855
		s-1.645-2.612-2.465-3.938c-0.822-1.324-1.685-2.545-2.585-3.658c-0.371-0.478-0.888-0.914-1.55-1.312
		c-0.663-0.398-1.287-0.598-1.87-0.598h-3.42c-0.952,0-1.576,0.452-1.868,1.353c-0.291,0.902-0.451,2.016-0.478,3.34
		c-0.027,1.326,0.04,2.783,0.2,4.374c0.158,1.591,0.225,3.05,0.198,4.374c-0.027,1.326-0.198,2.438-0.517,3.34
		c-0.317,0.9-0.928,1.352-1.829,1.352H386.99z M408.093,134.209c2.271,0,4.105-0.848,5.507-2.545
		c1.399-1.695,2.099-3.818,2.099-6.361c0-2.227-0.529-4.348-1.585-6.361c-0.845-1.38-1.94-2.214-3.288-2.506
		c-1.347-0.291-2.706-0.438-4.079-0.438h-8.473c-0.581,0-1.083,0.238-1.504,0.716c-0.425,0.477-0.634,1.033-0.634,1.67v13.438
		c0,0.689,0.209,1.26,0.634,1.711c0.421,0.451,0.923,0.676,1.504,0.676H408.093z"/>
	<path fill="#A6A8AB" d="M485.662,163.075c-0.58,0-1.079-0.238-1.502-0.715c-0.421-0.478-0.631-1.034-0.631-1.67v-42.466
		c0-0.582-0.133-1.046-0.396-1.392c-0.266-0.345-0.597-0.608-0.995-0.796c-0.397-0.185-0.834-0.304-1.312-0.357
		c-0.478-0.053-0.929-0.08-1.354-0.08c-1.22,0-2.412,0.08-3.578,0.24c-1.167,0.158-2.359,0.238-3.577,0.238
		c-0.427,0-0.876-0.027-1.351-0.08c-0.479-0.053-0.916-0.158-1.313-0.318c-0.397-0.158-0.729-0.41-0.994-0.756
		c-0.267-0.344-0.397-0.834-0.397-1.471v-6.124c0-0.636,0.209-1.193,0.636-1.67c0.424-0.476,0.927-0.715,1.512-0.715h37.376
		c0.583,0,1.086,0.239,1.51,0.715c0.424,0.478,0.636,1.035,0.636,1.67v6.124c0,0.69-0.198,1.26-0.597,1.709
		c-0.396,0.452-0.912,0.678-1.549,0.678h-10.816c-0.584,0-1.087,0.238-1.512,0.715c-0.423,0.477-0.635,1.033-0.635,1.67v42.466
		c0,0.688-0.213,1.259-0.632,1.71c-0.423,0.45-0.922,0.675-1.5,0.675H485.662z"/>
	<path fill="#A6A8AB" d="M569.336,104.387c0.266,0,0.477,0.093,0.636,0.279c0.159,0.186,0.292,0.386,0.398,0.596
		c0.316,0.583,0.954,1.842,1.908,3.777c0.954,1.936,2.094,4.281,3.419,7.039c1.326,2.756,2.784,5.777,4.374,9.064
		c1.59,3.288,3.181,6.629,4.771,10.02c1.591,3.394,3.129,6.681,4.612,9.861c1.484,3.182,2.81,6.004,3.977,8.47
		c1.164,2.465,2.094,4.467,2.784,6.005c0.688,1.537,1.034,2.359,1.034,2.464c0,0.478-0.136,0.796-0.398,0.954
		c-0.266,0.159-0.585,0.238-0.955,0.238h-8.111c-1.167,0-2.041-0.463-2.624-1.391c-0.583-0.927-1.101-1.948-1.55-3.063
		c-0.453-1.113-0.983-2.133-1.592-3.062c-0.609-0.927-1.497-1.392-2.664-1.392h-20.12c-1.219,0-2.105,0.465-2.662,1.392
		c-0.558,0.929-1.049,1.948-1.472,3.062c-0.425,1.114-0.928,2.136-1.51,3.063c-0.585,0.928-1.487,1.391-2.705,1.391h-8.111
		c-0.318,0-0.61-0.092-0.875-0.277c-0.267-0.186-0.397-0.49-0.397-0.915c0-0.104,0.343-0.927,1.032-2.464
		c0.69-1.538,1.618-3.552,2.784-6.045c1.167-2.49,2.492-5.314,3.977-8.469c1.483-3.154,3.035-6.414,4.652-9.781
		c1.616-3.367,3.207-6.693,4.772-9.98c1.563-3.287,3.007-6.295,4.333-9.026c1.325-2.729,2.452-5.075,3.379-7.038
		c0.928-1.96,1.552-3.26,1.869-3.896c0.107-0.21,0.239-0.41,0.398-0.596C568.858,104.48,569.07,104.387,569.336,104.387z
		 M573.868,143.513c0.371,0,0.702-0.106,0.995-0.317c0.29-0.211,0.437-0.529,0.437-0.955c0-0.318-0.227-1.033-0.676-2.146
		c-0.449-1.114-0.954-2.318-1.51-3.619c-0.557-1.298-1.114-2.531-1.67-3.697c-0.558-1.166-0.943-1.961-1.154-2.387
		c-0.106-0.211-0.213-0.41-0.318-0.596c-0.106-0.186-0.291-0.279-0.557-0.279s-0.478,0.107-0.636,0.318
		c-0.159,0.213-0.292,0.426-0.398,0.638c-0.158,0.372-0.503,1.153-1.032,2.345c-0.531,1.193-1.088,2.439-1.67,3.738
		c-0.585,1.3-1.103,2.504-1.552,3.617c-0.451,1.114-0.676,1.804-0.676,2.068c0,0.426,0.131,0.744,0.398,0.955
		c0.264,0.211,0.582,0.317,0.953,0.317H573.868z"/>
	<path fill="#A6A8AB" d="M678.043,160.77c0,0.689-0.211,1.26-0.636,1.709c-0.425,0.451-0.929,0.676-1.511,0.676h-34.448
		c-0.58,0-1.079-0.238-1.502-0.715c-0.421-0.478-0.632-1.034-0.632-1.67v-53.36c0-0.636,0.211-1.193,0.632-1.669
		c0.423-0.478,0.922-0.716,1.502-0.716h7.028c0.577,0,1.077,0.239,1.499,0.716c0.42,0.477,0.632,1.033,0.632,1.669v42.466
		c0,0.635,0.213,1.192,0.636,1.67c0.425,0.477,0.928,0.715,1.512,0.715h23.142c0.582,0,1.086,0.238,1.511,0.717
		c0.425,0.477,0.636,1.033,0.636,1.67V160.77z"/>
</g>
<g>
	<g>
		<path fill="#A6A8AB" d="M21.582,200.767c0,2.312-0.554,4.213-1.661,5.706c-1.107,1.492-2.636,2.527-4.586,3.105
			c-1.107,0.337-2.238,0.493-3.395,0.469c-1.155-0.023-2.311-0.036-3.466-0.036c-0.266,0-0.464,0.072-0.596,0.217
			c-0.133,0.144-0.235,0.325-0.308,0.542s-0.114,0.445-0.126,0.686c-0.013,0.24-0.019,0.469-0.019,0.686
			c0,0.578,0.019,1.15,0.055,1.716s0.054,1.138,0.054,1.716c0,0.216-0.006,0.445-0.018,0.686c-0.013,0.24-0.048,0.469-0.108,0.686
			c-0.06,0.217-0.161,0.397-0.305,0.542c-0.143,0.145-0.334,0.217-0.573,0.217H3.34c-0.263,0-0.49-0.108-0.682-0.325
			s-0.286-0.469-0.286-0.758v-24.23c0-0.289,0.096-0.541,0.288-0.758c0.191-0.217,0.42-0.325,0.685-0.325h8.687
			c1.249,0,2.451,0.211,3.604,0.632c1.153,0.422,2.174,1.035,3.063,1.842c0.89,0.807,1.592,1.793,2.108,2.961
			C21.324,197.908,21.582,199.25,21.582,200.767z M16.455,200.767c0-1.444-0.417-2.558-1.251-3.341
			c-0.834-0.781-1.868-1.173-3.101-1.173H8.479c-0.267,0-0.496,0.108-0.689,0.325s-0.29,0.469-0.29,0.758v6.645
			c0,0.289,0.097,0.541,0.29,0.758s0.423,0.325,0.689,0.325h4.278c1.16,0,2.066-0.391,2.719-1.173
			C16.128,203.107,16.455,202.066,16.455,200.767z"/>
		<path fill="#A6A8AB" d="M23.712,204.125c0-1.901,0.355-3.666,1.065-5.29c0.71-1.625,1.661-3.039,2.853-4.243
			c1.191-1.203,2.552-2.148,4.081-2.834c1.528-0.687,3.123-1.029,4.784-1.029c1.709,0,3.34,0.349,4.893,1.047
			s2.919,1.655,4.099,2.871c1.18,1.215,2.118,2.66,2.816,4.332c0.698,1.674,1.048,3.485,1.048,5.436c0,1.949-0.35,3.762-1.048,5.434
			c-0.698,1.674-1.631,3.124-2.798,4.352c-1.168,1.229-2.528,2.191-4.081,2.889c-1.553,0.698-3.195,1.047-4.929,1.047
			c-1.782,0-3.448-0.355-5.001-1.064c-1.553-0.71-2.907-1.697-4.063-2.961s-2.064-2.744-2.727-4.441S23.712,206.123,23.712,204.125z
			 M28.84,204.594c0,1.133,0.21,2.203,0.632,3.215c0.421,1.011,0.98,1.901,1.679,2.672s1.511,1.378,2.438,1.823
			c0.927,0.446,1.896,0.668,2.907,0.668c1.035,0,2.022-0.229,2.961-0.687c0.938-0.457,1.751-1.07,2.438-1.842
			c0.687-0.77,1.233-1.678,1.643-2.726s0.614-2.148,0.614-3.304c0-1.156-0.205-2.251-0.614-3.286s-0.956-1.938-1.643-2.708
			c-0.687-0.771-1.499-1.379-2.438-1.824s-1.926-0.668-2.961-0.668c-1.083,0-2.095,0.229-3.033,0.686
			c-0.938,0.459-1.751,1.078-2.438,1.86s-1.222,1.703-1.606,2.763C29.032,202.295,28.84,203.415,28.84,204.594z"/>
		<path fill="#A6A8AB" d="M62.999,212.972c0.867,0,1.703-0.168,2.51-0.505c0.807-0.338,1.414-0.999,1.824-1.986v-0.831
			c-0.169-0.313-0.302-0.565-0.397-0.759c-0.097-0.191-0.266-0.408-0.506-0.649c-0.361-0.337-0.825-0.589-1.391-0.759
			c-0.565-0.168-1.191-0.313-1.877-0.433c-0.687-0.12-1.415-0.247-2.185-0.38c-0.771-0.131-1.548-0.324-2.329-0.577
			c-0.783-0.253-1.553-0.589-2.312-1.011c-0.758-0.422-1.462-0.993-2.112-1.715c-0.554-0.627-0.957-1.33-1.21-2.113
			c-0.253-0.781-0.379-1.607-0.379-2.473c0-1.493,0.276-2.75,0.831-3.773c0.553-1.023,1.269-1.848,2.148-2.475
			c0.878-0.625,1.883-1.07,3.015-1.336c1.132-0.264,2.275-0.396,3.431-0.396c0.771,0,1.475,0.042,2.112,0.126
			c0.638,0.085,1.258,0.217,1.859,0.397c0.602,0.18,1.197,0.415,1.788,0.703c0.589,0.289,1.222,0.639,1.896,1.048
			c0.217,0.145,0.506,0.331,0.866,0.56c0.361,0.229,0.542,0.523,0.542,0.885c0,0.193-0.108,0.494-0.325,0.902
			c-0.217,0.41-0.469,0.825-0.758,1.246c-0.289,0.422-0.591,0.789-0.903,1.102s-0.565,0.469-0.758,0.469
			c-0.241,0-0.451-0.065-0.632-0.197c-0.181-0.133-0.355-0.26-0.523-0.38c-0.822-0.529-1.687-0.944-2.593-1.245
			s-1.83-0.452-2.772-0.452c-0.362,0-0.786,0.036-1.269,0.108c-0.483,0.072-0.931,0.205-1.341,0.397
			c-0.411,0.192-0.762,0.458-1.052,0.794c-0.29,0.338-0.435,0.771-0.435,1.301c0,0.337,0.072,0.649,0.217,0.938
			c0.553,0.603,1.293,1.047,2.221,1.336c0.926,0.289,1.926,0.548,2.997,0.776c1.07,0.229,2.16,0.482,3.268,0.758
			c1.107,0.277,2.1,0.699,2.979,1.264c0.878,0.566,1.601,1.343,2.166,2.33c0.565,0.986,0.849,2.299,0.849,3.936
			c0,1.541-0.265,2.834-0.793,3.882c-0.529,1.048-1.231,1.89-2.108,2.528c-0.877,0.638-1.887,1.096-3.027,1.371
			c-1.142,0.277-2.313,0.416-3.515,0.416c-1.755,0-3.382-0.234-4.884-0.705c-1.502-0.469-2.998-1.232-4.487-2.293
			c-0.24-0.191-0.463-0.379-0.667-0.559c-0.204-0.182-0.307-0.451-0.307-0.813c0-0.168,0.072-0.403,0.217-0.705
			c0.145-0.301,0.318-0.619,0.523-0.957c0.204-0.336,0.409-0.649,0.614-0.938c0.204-0.289,0.366-0.506,0.487-0.65
			c0.12-0.168,0.229-0.283,0.325-0.344c0.096-0.06,0.24-0.09,0.433-0.09c0.097,0,0.397,0.15,0.903,0.451
			c0.505,0.301,1.131,0.639,1.878,1.012c0.745,0.373,1.553,0.71,2.419,1.011C61.338,212.822,62.181,212.972,62.999,212.972z"/>
		<path fill="#A6A8AB" d="M93.837,216.619c0,0.313-0.097,0.572-0.289,0.775c-0.193,0.205-0.422,0.308-0.687,0.308H77.22
			c-0.264,0-0.49-0.108-0.682-0.325s-0.287-0.469-0.287-0.758v-24.23c0-0.289,0.096-0.541,0.287-0.758s0.418-0.325,0.682-0.325h3.19
			c0.264,0,0.49,0.108,0.682,0.325s0.287,0.469,0.287,0.758v19.283c0,0.289,0.096,0.541,0.289,0.758
			c0.192,0.217,0.421,0.325,0.686,0.325h10.508c0.265,0,0.493,0.108,0.687,0.325c0.192,0.217,0.289,0.469,0.289,0.758V216.619z"/>
		<path fill="#A6A8AB" d="M94.45,204.125c0-1.901,0.355-3.666,1.065-5.29c0.71-1.625,1.661-3.039,2.853-4.243
			c1.191-1.203,2.552-2.148,4.081-2.834c1.528-0.687,3.123-1.029,4.784-1.029c1.709,0,3.34,0.349,4.893,1.047
			s2.919,1.655,4.099,2.871c1.18,1.215,2.118,2.66,2.816,4.332c0.698,1.674,1.048,3.485,1.048,5.436c0,1.949-0.35,3.762-1.048,5.434
			c-0.698,1.674-1.631,3.124-2.798,4.352c-1.168,1.229-2.528,2.191-4.081,2.889c-1.553,0.698-3.195,1.047-4.929,1.047
			c-1.782,0-3.448-0.355-5.001-1.064c-1.553-0.71-2.907-1.697-4.063-2.961s-2.064-2.744-2.727-4.441S94.45,206.123,94.45,204.125z
			 M99.578,204.594c0,1.133,0.21,2.203,0.632,3.215c0.421,1.011,0.98,1.901,1.679,2.672s1.511,1.378,2.438,1.823
			c0.927,0.446,1.896,0.668,2.907,0.668c1.035,0,2.022-0.229,2.961-0.687c0.938-0.457,1.751-1.07,2.438-1.842
			c0.687-0.77,1.233-1.678,1.643-2.726s0.614-2.148,0.614-3.304c0-1.156-0.205-2.251-0.614-3.286s-0.956-1.938-1.643-2.708
			c-0.687-0.771-1.499-1.379-2.438-1.824s-1.926-0.668-2.961-0.668c-1.083,0-2.095,0.229-3.033,0.686
			c-0.938,0.459-1.751,1.078-2.438,1.86s-1.222,1.703-1.606,2.763C99.771,202.295,99.578,203.415,99.578,204.594z"/>
		<path fill="#A6A8AB" d="M131.535,217.738c-0.121,0-0.211-0.043-0.271-0.127c-0.061-0.084-0.115-0.174-0.163-0.271
			c-0.145-0.313-0.415-0.908-0.813-1.787c-0.397-0.878-0.873-1.938-1.426-3.178c-0.555-1.239-1.162-2.601-1.824-4.081
			s-1.324-2.973-1.985-4.477c-0.663-1.505-1.307-2.967-1.933-4.388s-1.18-2.685-1.661-3.792c-0.481-1.106-0.866-2.004-1.155-2.689
			c-0.289-0.687-0.434-1.053-0.434-1.102c0-0.192,0.066-0.331,0.199-0.416c0.132-0.084,0.282-0.126,0.451-0.126h3.684
			c0.265,0,0.535,0.091,0.813,0.271c0.276,0.182,0.475,0.416,0.596,0.705l5.488,12.639c0.048,0.096,0.103,0.186,0.163,0.27
			c0.06,0.086,0.149,0.127,0.271,0.127c0.096,0,0.181-0.041,0.253-0.127c0.072-0.084,0.132-0.174,0.181-0.27l5.488-12.639
			c0.12-0.266,0.318-0.494,0.596-0.687c0.276-0.192,0.548-0.289,0.813-0.289h3.756c0.168,0,0.318,0.036,0.451,0.108
			c0.132,0.072,0.198,0.217,0.198,0.434c0,0.049-0.145,0.422-0.434,1.119c-0.288,0.699-0.674,1.602-1.155,2.709
			s-1.035,2.371-1.661,3.791s-1.276,2.883-1.949,4.387c-0.675,1.506-1.343,2.998-2.005,4.479s-1.27,2.84-1.823,4.08
			s-1.035,2.299-1.444,3.178s-0.687,1.463-0.83,1.751c-0.049,0.097-0.104,0.187-0.163,0.271
			C131.745,217.695,131.655,217.738,131.535,217.738z"/>
		<path fill="#A6A8AB" d="M147.466,217.702c-0.267,0-0.497-0.108-0.691-0.325s-0.291-0.469-0.291-0.758v-25.061
			c0-0.12,0.024-0.246,0.072-0.379c0.049-0.133,0.145-0.199,0.289-0.199c0.12,0,0.428,0.217,0.921,0.65s1.096,1.006,1.806,1.715
			c0.71,0.711,1.511,1.518,2.401,2.42s1.793,1.823,2.708,2.762c0.915,0.939,1.817,1.86,2.708,2.763
			c0.891,0.903,1.691,1.71,2.401,2.419c0.71,0.711,1.313,1.283,1.806,1.716s0.8,0.649,0.921,0.649c0.12,0,0.204-0.065,0.253-0.198
			c0.048-0.132,0.072-0.259,0.072-0.379v-13.071c0-0.289,0.096-0.542,0.289-0.759c0.192-0.217,0.421-0.325,0.686-0.325h3.178
			c0.265,0,0.493,0.108,0.687,0.325c0.192,0.217,0.288,0.47,0.288,0.759v25.023c0,0.121-0.018,0.246-0.054,0.379
			s-0.126,0.199-0.271,0.199s-0.612-0.367-1.405-1.102s-1.747-1.648-2.864-2.744s-2.306-2.287-3.566-3.575
			c-1.262-1.288-2.45-2.479-3.567-3.575c-1.117-1.095-2.072-2.01-2.864-2.744c-0.793-0.734-1.261-1.102-1.405-1.102
			c-0.12,0-0.211,0.066-0.271,0.199s-0.09,0.259-0.09,0.379v12.855c0,0.313-0.097,0.572-0.291,0.775
			c-0.194,0.205-0.424,0.308-0.69,0.308H147.466z"/>
		<path fill="#A6A8AB" d="M174.794,217.666c-0.265,0-0.493-0.108-0.686-0.325c-0.193-0.216-0.289-0.47-0.289-0.759v-24.229
			c0-0.289,0.096-0.542,0.289-0.759c0.192-0.217,0.421-0.325,0.686-0.325h3.178c0.265,0,0.493,0.108,0.687,0.325
			c0.192,0.217,0.288,0.47,0.288,0.759v24.229c0,0.314-0.09,0.572-0.271,0.777s-0.415,0.307-0.704,0.307H174.794z"/>
		<path fill="#A6A8AB" d="M213.575,200.767c0,2.312-0.555,4.213-1.661,5.706c-1.107,1.492-2.637,2.527-4.586,3.105
			c-1.107,0.337-2.239,0.493-3.395,0.469c-1.155-0.023-2.312-0.036-3.467-0.036c-0.265,0-0.464,0.072-0.596,0.217
			c-0.133,0.144-0.234,0.325-0.307,0.542s-0.114,0.445-0.127,0.686c-0.012,0.24-0.018,0.469-0.018,0.686
			c0,0.578,0.018,1.15,0.054,1.716s0.055,1.138,0.055,1.716c0,0.216-0.007,0.445-0.019,0.686s-0.048,0.469-0.107,0.686
			s-0.161,0.397-0.305,0.542s-0.335,0.217-0.574,0.217h-3.19c-0.264,0-0.49-0.108-0.682-0.325s-0.287-0.469-0.287-0.758v-24.23
			c0-0.289,0.096-0.541,0.288-0.758s0.421-0.325,0.686-0.325h8.686c1.25,0,2.451,0.211,3.604,0.632
			c1.153,0.422,2.174,1.035,3.063,1.842c0.889,0.807,1.592,1.793,2.108,2.961S213.575,199.25,213.575,200.767z M208.447,200.767
			c0-1.444-0.417-2.558-1.251-3.341c-0.834-0.781-1.867-1.173-3.1-1.173h-3.626c-0.266,0-0.496,0.108-0.688,0.325
			c-0.193,0.217-0.29,0.469-0.29,0.758v6.645c0,0.289,0.097,0.541,0.29,0.758c0.192,0.217,0.423,0.325,0.688,0.325h4.278
			c1.16,0,2.066-0.391,2.72-1.173C208.12,203.107,208.447,202.066,208.447,200.767z"/>
		<path fill="#A6A8AB" d="M215.705,204.125c0-1.901,0.354-3.666,1.065-5.29c0.709-1.625,1.661-3.039,2.853-4.243
			c1.191-1.203,2.551-2.148,4.08-2.834c1.528-0.687,3.124-1.029,4.784-1.029c1.709,0,3.341,0.349,4.894,1.047
			s2.919,1.655,4.099,2.871c1.179,1.215,2.118,2.66,2.816,4.332c0.697,1.674,1.047,3.485,1.047,5.436
			c0,1.949-0.35,3.762-1.047,5.434c-0.698,1.674-1.632,3.124-2.799,4.352c-1.168,1.229-2.527,2.191-4.08,2.889
			c-1.553,0.698-3.196,1.047-4.93,1.047c-1.781,0-3.448-0.355-5.001-1.064c-1.553-0.71-2.906-1.697-4.063-2.961
			c-1.155-1.264-2.064-2.744-2.726-4.441C216.035,207.971,215.705,206.123,215.705,204.125z M220.832,204.594
			c0,1.133,0.211,2.203,0.633,3.215c0.421,1.011,0.98,1.901,1.679,2.672s1.511,1.378,2.438,1.823
			c0.927,0.446,1.896,0.668,2.906,0.668c1.035,0,2.022-0.229,2.962-0.687c0.938-0.457,1.751-1.07,2.437-1.842
			c0.687-0.77,1.233-1.678,1.644-2.726c0.409-1.048,0.613-2.148,0.613-3.304c0-1.156-0.204-2.251-0.613-3.286
			c-0.41-1.035-0.957-1.938-1.644-2.708c-0.686-0.771-1.498-1.379-2.437-1.824c-0.939-0.445-1.927-0.668-2.962-0.668
			c-1.083,0-2.094,0.229-3.033,0.686c-0.938,0.459-1.751,1.078-2.437,1.86c-0.687,0.782-1.223,1.703-1.607,2.763
			C221.024,202.295,220.832,203.415,220.832,204.594z"/>
		<path fill="#A6A8AB" d="M246.182,217.738c-0.289,0-0.524-0.102-0.704-0.307c-0.181-0.205-0.271-0.463-0.271-0.777v-24.229
			c0-0.289,0.096-0.542,0.289-0.759c0.192-0.217,0.421-0.325,0.687-0.325h9.568c1.229,0,2.371,0.217,3.431,0.65
			s1.968,1.047,2.727,1.842c0.758,0.794,1.354,1.757,1.787,2.889c0.434,1.131,0.65,2.396,0.65,3.791c0,1.758-0.338,3.274-1.012,4.55
			c-0.674,1.276-1.661,2.396-2.961,3.358c-0.145,0.121-0.265,0.229-0.36,0.325c-0.097,0.097-0.145,0.253-0.145,0.47
			c0,0.192,0.132,0.5,0.396,0.92c0.265,0.422,0.597,0.903,0.993,1.445c0.397,0.541,0.824,1.119,1.282,1.732
			c0.457,0.614,0.885,1.187,1.282,1.715c0.396,0.53,0.728,1,0.992,1.409s0.397,0.698,0.397,0.866c0,0.169-0.061,0.283-0.181,0.344
			c-0.12,0.06-0.24,0.09-0.36,0.09h-4.189c-0.577,0-1.047-0.192-1.408-0.578c-0.457-0.48-0.879-1.011-1.264-1.588
			c-0.386-0.578-0.765-1.162-1.138-1.752s-0.746-1.186-1.119-1.787c-0.374-0.602-0.765-1.156-1.174-1.662
			c-0.169-0.216-0.403-0.414-0.704-0.596c-0.301-0.18-0.584-0.27-0.849-0.27h-1.553c-0.433,0-0.717,0.204-0.849,0.613
			c-0.132,0.41-0.204,0.915-0.217,1.517c-0.012,0.603,0.019,1.264,0.091,1.985c0.072,0.723,0.102,1.385,0.09,1.986
			c-0.012,0.603-0.09,1.107-0.234,1.518c-0.145,0.409-0.422,0.613-0.83,0.613H246.182z M255.765,204.559
			c1.03,0,1.864-0.385,2.499-1.156c0.636-0.77,0.953-1.732,0.953-2.889c0-1.011-0.239-1.974-0.72-2.889
			c-0.383-0.625-0.881-1.005-1.492-1.137c-0.611-0.133-1.229-0.199-1.853-0.199h-3.848c-0.264,0-0.491,0.108-0.683,0.324
			c-0.192,0.217-0.288,0.471-0.288,0.759v6.103c0,0.313,0.096,0.572,0.288,0.776c0.191,0.205,0.419,0.308,0.683,0.308H255.765z"/>
		<path fill="#A6A8AB" d="M273.835,217.666c-0.263,0-0.49-0.108-0.682-0.325c-0.191-0.216-0.286-0.47-0.286-0.759v-19.281
			c0-0.266-0.061-0.476-0.181-0.633c-0.121-0.156-0.271-0.276-0.452-0.361c-0.18-0.084-0.379-0.138-0.596-0.162
			c-0.216-0.023-0.421-0.036-0.613-0.036c-0.555,0-1.096,0.036-1.625,0.108c-0.53,0.072-1.071,0.108-1.625,0.108
			c-0.193,0-0.397-0.012-0.614-0.036c-0.217-0.023-0.415-0.072-0.596-0.145s-0.331-0.186-0.451-0.344
			c-0.121-0.156-0.181-0.379-0.181-0.668v-2.779c0-0.289,0.096-0.542,0.289-0.759c0.192-0.217,0.421-0.325,0.686-0.325h16.972
			c0.265,0,0.493,0.108,0.687,0.325c0.192,0.217,0.289,0.47,0.289,0.759v2.779c0,0.314-0.091,0.572-0.271,0.777
			c-0.18,0.205-0.415,0.307-0.704,0.307h-4.91c-0.266,0-0.494,0.108-0.687,0.325c-0.193,0.216-0.289,0.47-0.289,0.759v19.281
			c0,0.314-0.096,0.572-0.287,0.777s-0.418,0.307-0.681,0.307H273.835z"/>
		<path fill="#A6A8AB" d="M294.677,191.018c0.12,0,0.217,0.041,0.289,0.126s0.132,0.175,0.18,0.271
			c0.145,0.266,0.434,0.837,0.867,1.715c0.434,0.879,0.95,1.945,1.553,3.196c0.602,1.252,1.264,2.624,1.986,4.116
			c0.722,1.493,1.444,3.01,2.167,4.551c0.722,1.54,1.42,3.033,2.094,4.477c0.674,1.445,1.275,2.727,1.806,3.846
			c0.529,1.119,0.95,2.029,1.264,2.727c0.313,0.699,0.47,1.071,0.47,1.119c0,0.217-0.061,0.361-0.181,0.434
			c-0.121,0.072-0.265,0.108-0.434,0.108h-3.683c-0.53,0-0.928-0.21-1.191-0.632c-0.266-0.421-0.501-0.885-0.705-1.391
			c-0.205-0.506-0.445-0.969-0.723-1.391c-0.276-0.42-0.68-0.631-1.209-0.631h-9.136c-0.555,0-0.957,0.211-1.21,0.631
			c-0.253,0.422-0.476,0.885-0.668,1.391c-0.193,0.506-0.422,0.97-0.687,1.391c-0.265,0.422-0.674,0.632-1.228,0.632h-3.683
			c-0.145,0-0.277-0.042-0.397-0.126c-0.121-0.084-0.181-0.223-0.181-0.416c0-0.048,0.156-0.42,0.47-1.119
			c0.313-0.697,0.733-1.612,1.264-2.744c0.529-1.131,1.131-2.413,1.806-3.846c0.674-1.432,1.378-2.912,2.112-4.441
			c0.733-1.529,1.456-3.039,2.166-4.532c0.71-1.492,1.366-2.858,1.969-4.099c0.601-1.239,1.113-2.305,1.534-3.195
			s0.704-1.48,0.849-1.77c0.048-0.096,0.108-0.186,0.181-0.271S294.556,191.018,294.677,191.018z M296.734,208.783
			c0.169,0,0.319-0.049,0.452-0.145c0.132-0.096,0.198-0.24,0.198-0.434c0-0.145-0.103-0.469-0.307-0.975
			c-0.205-0.506-0.434-1.053-0.687-1.643s-0.506-1.15-0.758-1.68c-0.253-0.529-0.428-0.891-0.524-1.084
			c-0.048-0.096-0.096-0.186-0.144-0.27c-0.049-0.084-0.133-0.127-0.253-0.127c-0.121,0-0.217,0.049-0.289,0.145
			s-0.133,0.193-0.181,0.289c-0.072,0.168-0.229,0.523-0.47,1.064c-0.24,0.542-0.493,1.107-0.758,1.697
			c-0.266,0.59-0.5,1.138-0.704,1.644c-0.205,0.505-0.308,0.818-0.308,0.938c0,0.193,0.061,0.338,0.181,0.434
			s0.265,0.145,0.434,0.145H296.734z"/>
		<path fill="#A6A8AB" d="M326.887,216.619c0,0.313-0.096,0.572-0.289,0.775c-0.192,0.205-0.421,0.308-0.686,0.308H310.27
			c-0.263,0-0.49-0.108-0.682-0.325s-0.286-0.469-0.286-0.758v-24.23c0-0.289,0.095-0.541,0.286-0.758s0.419-0.325,0.682-0.325
			h3.191c0.264,0,0.49,0.108,0.682,0.325s0.287,0.469,0.287,0.758v19.283c0,0.289,0.096,0.541,0.289,0.758
			c0.191,0.217,0.42,0.325,0.686,0.325h10.508c0.265,0,0.493,0.108,0.686,0.325c0.193,0.217,0.289,0.469,0.289,0.758V216.619z"/>
		<path fill="#A6A8AB" d="M338.803,204.125c0-1.901,0.355-3.666,1.065-5.29c0.71-1.625,1.661-3.039,2.853-4.243
			c1.191-1.203,2.552-2.148,4.08-2.834c1.528-0.687,3.124-1.029,4.785-1.029c1.709,0,3.34,0.349,4.893,1.047
			s2.919,1.655,4.099,2.871c1.179,1.215,2.118,2.66,2.816,4.332c0.698,1.674,1.047,3.485,1.047,5.436
			c0,1.949-0.349,3.762-1.047,5.434c-0.698,1.674-1.631,3.124-2.799,4.352c-1.168,1.229-2.527,2.191-4.08,2.889
			c-1.553,0.698-3.195,1.047-4.929,1.047c-1.782,0-3.449-0.355-5.002-1.064c-1.553-0.71-2.906-1.697-4.062-2.961
			s-2.065-2.744-2.727-4.441C339.133,207.971,338.803,206.123,338.803,204.125z M343.931,204.594c0,1.133,0.21,2.203,0.632,3.215
			c0.421,1.011,0.98,1.901,1.679,2.672s1.511,1.378,2.438,1.823c0.927,0.446,1.896,0.668,2.907,0.668
			c1.034,0,2.021-0.229,2.961-0.687c0.938-0.457,1.751-1.07,2.438-1.842c0.686-0.77,1.233-1.678,1.643-2.726
			s0.614-2.148,0.614-3.304c0-1.156-0.205-2.251-0.614-3.286s-0.957-1.938-1.643-2.708c-0.687-0.771-1.499-1.379-2.438-1.824
			c-0.939-0.445-1.927-0.668-2.961-0.668c-1.084,0-2.095,0.229-3.033,0.686c-0.939,0.459-1.752,1.078-2.438,1.86
			c-0.687,0.782-1.223,1.703-1.607,2.763C344.123,202.295,343.931,203.415,343.931,204.594z"/>
		<path fill="#8BC53F" d="M389.789,218.135c-2.769,0-5.2-0.775-7.294-2.328c-2.095-1.553-3.672-3.75-4.73-6.59
			c-0.145-0.457-0.313-1.029-0.506-1.716c-0.193-0.687-0.289-1.27-0.289-1.751c0-0.698,0.012-1.378,0.036-2.041
			c0.023-0.661,0.096-1.329,0.217-2.004c0.289-1.516,0.818-2.93,1.589-4.242s1.703-2.455,2.799-3.431
			c1.095-0.976,2.305-1.745,3.629-2.312c1.323-0.564,2.684-0.848,4.08-0.848c0.65,0,1.288,0.023,1.914,0.072
			c0.626,0.048,1.251,0.168,1.878,0.36c1.3,0.409,2.575,1.054,3.827,1.933s2.275,1.932,3.069,3.159
			c0.12,0.169,0.253,0.374,0.397,0.614s0.217,0.469,0.217,0.686s-0.036,0.373-0.108,0.469c-0.072,0.098-0.193,0.193-0.361,0.289
			c-0.145,0.072-0.379,0.188-0.704,0.344s-0.668,0.307-1.029,0.451s-0.698,0.277-1.011,0.396c-0.313,0.121-0.542,0.182-0.687,0.182
			c-0.36,0-0.729-0.199-1.101-0.596c-0.374-0.397-0.813-0.831-1.318-1.301c-0.506-0.469-1.119-0.902-1.842-1.3
			c-0.722-0.397-1.613-0.596-2.672-0.596c-1.06,0-2.053,0.217-2.979,0.649c-0.927,0.434-1.733,1.029-2.419,1.788
			c-0.687,0.759-1.228,1.655-1.625,2.69s-0.596,2.143-0.596,3.322s0.198,2.287,0.596,3.322s0.938,1.932,1.625,2.689
			c0.686,0.758,1.492,1.36,2.419,1.806c0.927,0.446,1.92,0.668,2.979,0.668c1.034,0,1.914-0.198,2.636-0.596
			c0.723-0.397,1.348-0.843,1.878-1.336c0.529-0.493,0.98-0.938,1.354-1.337c0.373-0.396,0.729-0.596,1.065-0.596
			c0.145,0,0.373,0.061,0.687,0.182c0.313,0.12,0.644,0.252,0.993,0.396c0.349,0.145,0.686,0.295,1.011,0.451
			c0.325,0.157,0.571,0.271,0.74,0.344c0.192,0.096,0.325,0.193,0.397,0.289s0.108,0.265,0.108,0.505
			c0,0.289-0.145,0.638-0.434,1.048c-0.289,0.409-0.518,0.722-0.687,0.938C396.89,216.511,393.641,218.135,389.789,218.135z"/>
		<path fill="#8BC53F" d="M406.074,217.666c-0.265,0-0.493-0.108-0.686-0.325c-0.193-0.216-0.289-0.47-0.289-0.759v-24.229
			c0-0.289,0.096-0.542,0.289-0.759c0.192-0.217,0.421-0.325,0.686-0.325h3.178c0.265,0,0.493,0.108,0.687,0.325
			c0.192,0.217,0.289,0.47,0.289,0.759v24.229c0,0.314-0.091,0.572-0.271,0.777s-0.415,0.307-0.704,0.307H406.074z"/>
		<path fill="#8BC53F" d="M425.646,212.972c0.867,0,1.703-0.168,2.51-0.505c0.807-0.338,1.414-0.999,1.823-1.986v-0.831
			c-0.168-0.313-0.301-0.565-0.396-0.759c-0.097-0.191-0.266-0.408-0.506-0.649c-0.361-0.337-0.825-0.589-1.391-0.759
			c-0.565-0.168-1.191-0.313-1.878-0.433c-0.686-0.12-1.414-0.247-2.185-0.38c-0.771-0.131-1.547-0.324-2.329-0.577
			s-1.553-0.589-2.311-1.011c-0.759-0.422-1.463-0.993-2.112-1.715c-0.555-0.627-0.957-1.33-1.21-2.113
			c-0.253-0.781-0.379-1.607-0.379-2.473c0-1.493,0.276-2.75,0.83-3.773s1.27-1.848,2.148-2.475c0.879-0.625,1.884-1.07,3.016-1.336
			c1.131-0.264,2.274-0.396,3.431-0.396c0.77,0,1.474,0.042,2.112,0.126c0.638,0.085,1.258,0.217,1.859,0.397
			c0.602,0.18,1.197,0.415,1.787,0.703c0.59,0.289,1.222,0.639,1.896,1.048c0.217,0.145,0.505,0.331,0.866,0.56
			s0.542,0.523,0.542,0.885c0,0.193-0.108,0.494-0.325,0.902c-0.217,0.41-0.47,0.825-0.759,1.246
			c-0.288,0.422-0.59,0.789-0.902,1.102c-0.313,0.313-0.565,0.469-0.758,0.469c-0.241,0-0.452-0.065-0.633-0.197
			c-0.18-0.133-0.355-0.26-0.523-0.38c-0.821-0.529-1.686-0.944-2.592-1.245s-1.83-0.452-2.772-0.452
			c-0.362,0-0.786,0.036-1.269,0.108c-0.484,0.072-0.931,0.205-1.342,0.397c-0.41,0.192-0.761,0.458-1.051,0.794
			c-0.29,0.338-0.436,0.771-0.436,1.301c0,0.337,0.072,0.649,0.217,0.938c0.554,0.603,1.294,1.047,2.221,1.336
			s1.926,0.548,2.997,0.776s2.161,0.482,3.269,0.758c1.106,0.277,2.1,0.699,2.979,1.264c0.879,0.566,1.601,1.343,2.167,2.33
			c0.565,0.986,0.849,2.299,0.849,3.936c0,1.541-0.265,2.834-0.793,3.882c-0.529,1.048-1.232,1.89-2.108,2.528
			c-0.877,0.638-1.887,1.096-3.028,1.371c-1.142,0.277-2.313,0.416-3.514,0.416c-1.755,0-3.383-0.234-4.885-0.705
			c-1.502-0.469-2.997-1.232-4.487-2.293c-0.24-0.191-0.462-0.379-0.666-0.559c-0.205-0.182-0.307-0.451-0.307-0.813
			c0-0.168,0.072-0.403,0.217-0.705c0.145-0.301,0.318-0.619,0.523-0.957c0.204-0.336,0.409-0.649,0.613-0.938
			c0.205-0.289,0.367-0.506,0.488-0.65c0.12-0.168,0.229-0.283,0.324-0.344c0.097-0.06,0.241-0.09,0.434-0.09
			c0.096,0,0.397,0.15,0.903,0.451c0.505,0.301,1.131,0.639,1.877,1.012s1.553,0.71,2.42,1.011
			C423.984,212.822,424.827,212.972,425.646,212.972z"/>
		<path fill="#8BC53F" d="M443.043,217.666c-0.263,0-0.49-0.108-0.682-0.325c-0.191-0.216-0.286-0.47-0.286-0.759v-19.281
			c0-0.266-0.061-0.476-0.181-0.633c-0.121-0.156-0.271-0.276-0.451-0.361c-0.181-0.084-0.38-0.138-0.596-0.162
			c-0.217-0.023-0.422-0.036-0.614-0.036c-0.554,0-1.096,0.036-1.625,0.108s-1.071,0.108-1.625,0.108
			c-0.192,0-0.397-0.012-0.613-0.036c-0.217-0.023-0.416-0.072-0.597-0.145c-0.18-0.072-0.331-0.186-0.451-0.344
			c-0.12-0.156-0.181-0.379-0.181-0.668v-2.779c0-0.289,0.097-0.542,0.289-0.759s0.421-0.325,0.687-0.325h16.972
			c0.265,0,0.493,0.108,0.686,0.325s0.289,0.47,0.289,0.759v2.779c0,0.314-0.09,0.572-0.271,0.777s-0.416,0.307-0.704,0.307h-4.911
			c-0.266,0-0.494,0.108-0.687,0.325c-0.192,0.216-0.289,0.47-0.289,0.759v19.281c0,0.314-0.096,0.572-0.287,0.777
			c-0.19,0.205-0.418,0.307-0.681,0.307H443.043z"/>
		<path fill="#8BC53F" d="M456.013,204.125c0-1.901,0.354-3.666,1.065-5.29c0.71-1.625,1.661-3.039,2.853-4.243
			c1.191-1.203,2.552-2.148,4.08-2.834c1.528-0.687,3.124-1.029,4.785-1.029c1.709,0,3.34,0.349,4.893,1.047
			s2.919,1.655,4.099,2.871c1.179,1.215,2.118,2.66,2.816,4.332c0.698,1.674,1.047,3.485,1.047,5.436
			c0,1.949-0.349,3.762-1.047,5.434c-0.698,1.674-1.631,3.124-2.799,4.352c-1.168,1.229-2.527,2.191-4.08,2.889
			c-1.553,0.698-3.195,1.047-4.929,1.047c-1.782,0-3.449-0.355-5.002-1.064c-1.553-0.71-2.906-1.697-4.062-2.961
			c-1.156-1.264-2.064-2.744-2.727-4.441S456.013,206.123,456.013,204.125z M461.141,204.594c0,1.133,0.21,2.203,0.632,3.215
			c0.421,1.011,0.98,1.901,1.679,2.672s1.511,1.378,2.438,1.823c0.927,0.446,1.896,0.668,2.907,0.668
			c1.034,0,2.021-0.229,2.961-0.687c0.938-0.457,1.751-1.07,2.438-1.842c0.686-0.77,1.233-1.678,1.643-2.726
			s0.614-2.148,0.614-3.304c0-1.156-0.205-2.251-0.614-3.286s-0.957-1.938-1.643-2.708c-0.687-0.771-1.499-1.379-2.438-1.824
			c-0.939-0.445-1.927-0.668-2.961-0.668c-1.084,0-2.095,0.229-3.033,0.686c-0.939,0.459-1.752,1.078-2.438,1.86
			c-0.687,0.782-1.223,1.703-1.607,2.763C461.333,202.295,461.141,203.415,461.141,204.594z"/>
		<path fill="#8BC53F" d="M501.041,208.133c0,1.565-0.221,2.961-0.663,4.189c-0.442,1.227-1.07,2.269-1.883,3.123
			s-1.783,1.511-2.911,1.968c-1.129,0.457-2.379,0.687-3.751,0.687c-1.589,0-2.973-0.332-4.152-0.993
			c-1.18-0.662-2.274-1.679-3.286-3.052c-0.12-0.168-0.247-0.366-0.379-0.596c-0.133-0.229-0.198-0.451-0.198-0.668
			c0-0.265,0.048-0.451,0.144-0.56c0.097-0.108,0.241-0.222,0.434-0.343c0.12-0.072,0.337-0.193,0.65-0.361
			c0.313-0.168,0.644-0.33,0.993-0.487c0.349-0.156,0.68-0.301,0.992-0.434c0.313-0.132,0.529-0.198,0.65-0.198
			c0.24,0,0.47,0.139,0.687,0.415c0.216,0.276,0.475,0.577,0.776,0.903c0.301,0.324,0.661,0.625,1.083,0.902
			c0.421,0.277,0.957,0.415,1.606,0.415c0.891,0,1.607-0.156,2.148-0.47c0.542-0.313,0.957-0.74,1.246-1.281
			c0.289-0.542,0.476-1.174,0.56-1.896c0.084-0.722,0.127-1.504,0.127-2.347v-14.733c0-0.313,0.089-0.571,0.269-0.775
			c0.179-0.205,0.412-0.308,0.699-0.308h3.191c0.263,0,0.489,0.108,0.681,0.325s0.287,0.469,0.287,0.758V208.133z"/>
		<path fill="#A6A8AB" d="M521.263,201.013c0,0.291,0.096,0.546,0.289,0.763c0.192,0.219,0.421,0.327,0.686,0.327h6.175
			c0.265,0,0.493,0.108,0.687,0.323c0.192,0.215,0.289,0.466,0.289,0.752v2.797c0,0.311-0.097,0.567-0.289,0.771
			c-0.193,0.203-0.422,0.305-0.687,0.305h-6.175c-0.265,0-0.493,0.108-0.686,0.325c-0.193,0.217-0.289,0.469-0.289,0.758v3.467
			c0,0.289,0.096,0.541,0.289,0.758c0.192,0.217,0.421,0.325,0.686,0.325h10.905c0.265,0,0.493,0.108,0.687,0.325
			c0.192,0.217,0.289,0.469,0.289,0.758v2.781c0,0.313-0.091,0.572-0.271,0.775c-0.181,0.205-0.415,0.308-0.704,0.308H517.11
			c-0.266,0-0.494-0.108-0.687-0.325c-0.193-0.217-0.289-0.469-0.289-0.758v-24.23c0-0.289,0.096-0.541,0.289-0.758
			c0.192-0.217,0.421-0.325,0.687-0.325h16.032c0.265,0,0.493,0.108,0.687,0.325c0.192,0.217,0.289,0.469,0.289,0.758v2.781
			c0,0.313-0.091,0.572-0.271,0.775c-0.181,0.205-0.415,0.308-0.704,0.308h-10.905c-0.265,0-0.493,0.109-0.686,0.327
			c-0.193,0.218-0.289,0.473-0.289,0.763V201.013z"/>
		<path fill="#A6A8AB" d="M539.902,217.702c-0.268,0-0.497-0.108-0.691-0.325s-0.291-0.469-0.291-0.758v-25.061
			c0-0.12,0.024-0.246,0.072-0.379s0.145-0.199,0.289-0.199c0.12,0,0.427,0.217,0.921,0.65c0.493,0.434,1.095,1.006,1.806,1.715
			c0.71,0.711,1.51,1.518,2.401,2.42c0.89,0.902,1.793,1.823,2.708,2.762c0.914,0.939,1.817,1.86,2.708,2.763
			c0.891,0.903,1.691,1.71,2.401,2.419c0.71,0.711,1.312,1.283,1.806,1.716c0.493,0.433,0.8,0.649,0.921,0.649
			c0.12,0,0.204-0.065,0.253-0.198c0.048-0.132,0.072-0.259,0.072-0.379v-13.071c0-0.289,0.096-0.542,0.288-0.759
			s0.421-0.325,0.687-0.325h3.178c0.265,0,0.493,0.108,0.686,0.325s0.289,0.47,0.289,0.759v25.023c0,0.121-0.018,0.246-0.054,0.379
			s-0.127,0.199-0.271,0.199c-0.145,0-0.612-0.367-1.405-1.102s-1.747-1.648-2.864-2.744s-2.306-2.287-3.566-3.575
			c-1.262-1.288-2.451-2.479-3.568-3.575c-1.117-1.095-2.071-2.01-2.863-2.744c-0.793-0.734-1.262-1.102-1.405-1.102
			c-0.121,0-0.211,0.066-0.271,0.199s-0.09,0.259-0.09,0.379v12.855c0,0.313-0.097,0.572-0.291,0.775
			c-0.194,0.205-0.425,0.308-0.69,0.308H539.902z"/>
		<path fill="#A6A8AB" d="M570.913,201.013c0,0.291,0.096,0.546,0.289,0.763c0.192,0.219,0.421,0.327,0.686,0.327h6.175
			c0.265,0,0.493,0.108,0.687,0.323c0.192,0.215,0.289,0.466,0.289,0.752v2.797c0,0.311-0.097,0.567-0.289,0.771
			c-0.193,0.203-0.422,0.305-0.687,0.305h-6.175c-0.265,0-0.493,0.108-0.686,0.325c-0.193,0.217-0.289,0.469-0.289,0.758v3.467
			c0,0.289,0.096,0.541,0.289,0.758c0.192,0.217,0.421,0.325,0.686,0.325h10.905c0.265,0,0.493,0.108,0.687,0.325
			c0.192,0.217,0.289,0.469,0.289,0.758v2.781c0,0.313-0.091,0.572-0.271,0.775c-0.181,0.205-0.415,0.308-0.704,0.308h-16.032
			c-0.266,0-0.494-0.108-0.687-0.325c-0.193-0.217-0.289-0.469-0.289-0.758v-24.23c0-0.289,0.096-0.541,0.289-0.758
			c0.192-0.217,0.421-0.325,0.687-0.325h16.032c0.265,0,0.493,0.108,0.687,0.325c0.192,0.217,0.289,0.469,0.289,0.758v2.781
			c0,0.313-0.091,0.572-0.271,0.775c-0.181,0.205-0.415,0.308-0.704,0.308h-10.905c-0.265,0-0.493,0.109-0.686,0.327
			c-0.193,0.218-0.289,0.473-0.289,0.763V201.013z"/>
		<path fill="#A6A8AB" d="M589.221,217.738c-0.289,0-0.523-0.102-0.704-0.307s-0.271-0.463-0.271-0.777v-24.229
			c0-0.289,0.097-0.542,0.289-0.759s0.421-0.325,0.687-0.325h9.569c1.228,0,2.37,0.217,3.43,0.65s1.969,1.047,2.727,1.842
			c0.759,0.794,1.354,1.757,1.787,2.889c0.434,1.131,0.65,2.396,0.65,3.791c0,1.758-0.338,3.274-1.011,4.55
			c-0.675,1.276-1.661,2.396-2.961,3.358c-0.145,0.121-0.266,0.229-0.361,0.325c-0.097,0.097-0.145,0.253-0.145,0.47
			c0,0.192,0.132,0.5,0.397,0.92c0.265,0.422,0.596,0.903,0.992,1.445c0.397,0.541,0.825,1.119,1.282,1.732
			c0.457,0.614,0.885,1.187,1.282,1.715c0.397,0.53,0.728,1,0.993,1.409c0.265,0.409,0.396,0.698,0.396,0.866
			c0,0.169-0.06,0.283-0.18,0.344c-0.121,0.06-0.241,0.09-0.361,0.09h-4.188c-0.578,0-1.048-0.192-1.409-0.578
			c-0.457-0.48-0.879-1.011-1.264-1.588c-0.385-0.578-0.765-1.162-1.138-1.752s-0.746-1.186-1.119-1.787s-0.765-1.156-1.174-1.662
			c-0.168-0.216-0.403-0.414-0.704-0.596c-0.301-0.18-0.584-0.27-0.849-0.27h-1.553c-0.433,0-0.716,0.204-0.848,0.613
			c-0.133,0.41-0.205,0.915-0.217,1.517c-0.013,0.603,0.018,1.264,0.09,1.985c0.072,0.723,0.103,1.385,0.091,1.986
			c-0.013,0.603-0.091,1.107-0.235,1.518c-0.145,0.409-0.421,0.613-0.83,0.613H589.221z M598.804,204.559
			c1.031,0,1.864-0.385,2.499-1.156c0.636-0.77,0.953-1.732,0.953-2.889c0-1.011-0.239-1.974-0.719-2.889
			c-0.384-0.625-0.882-1.005-1.492-1.137c-0.612-0.133-1.229-0.199-1.853-0.199h-3.849c-0.264,0-0.491,0.108-0.683,0.324
			c-0.192,0.217-0.288,0.471-0.288,0.759v6.103c0,0.313,0.096,0.572,0.288,0.776c0.191,0.205,0.419,0.308,0.683,0.308H598.804z"/>
		<path fill="#A6A8AB" d="M623.308,218.1c-1.276,0-2.516-0.229-3.72-0.687c-1.203-0.457-2.316-1.089-3.34-1.896
			s-1.932-1.764-2.727-2.871c-0.794-1.107-1.42-2.311-1.877-3.611c-0.338-1.034-0.536-1.967-0.596-2.798
			c-0.061-0.831-0.091-1.788-0.091-2.87c0-0.627,0.084-1.283,0.253-1.969c0.168-0.686,0.361-1.306,0.578-1.859
			c1.083-2.768,2.665-4.917,4.748-6.445c2.082-1.529,4.472-2.293,7.168-2.293c3.659,0,6.776,1.443,9.353,4.332
			c0.192,0.193,0.409,0.458,0.649,0.795c0.24,0.338,0.361,0.65,0.361,0.939c0,0.192-0.036,0.343-0.108,0.451
			c-0.072,0.107-0.169,0.223-0.289,0.343c-0.145,0.12-0.373,0.289-0.686,0.505c-0.313,0.217-0.639,0.428-0.976,0.633
			s-0.668,0.385-0.992,0.541c-0.325,0.157-0.561,0.235-0.705,0.235c-0.336,0-0.624-0.145-0.864-0.434
			c-0.432-0.457-0.853-0.878-1.261-1.264c-0.408-0.385-0.841-0.716-1.297-0.993c-0.456-0.276-0.937-0.493-1.44-0.65
			c-0.505-0.156-1.081-0.234-1.729-0.234c-1.009,0-1.97,0.217-2.882,0.65s-1.723,1.018-2.432,1.751
			c-0.708,0.735-1.272,1.601-1.692,2.601c-0.42,0.998-0.63,2.064-0.63,3.195c0,0.554,0.029,1.102,0.09,1.643
			c0.06,0.542,0.186,1.078,0.378,1.607c0.672,1.66,1.621,2.991,2.846,3.99s2.665,1.498,4.322,1.498c1.08,0,2.155-0.253,3.224-0.758
			c1.068-0.506,1.951-1.216,2.647-2.131c0.12-0.168,0.276-0.402,0.468-0.704c0.192-0.301,0.288-0.548,0.288-0.74
			c0-0.434-0.229-0.649-0.686-0.649h-6.934c-0.265,0-0.493-0.109-0.686-0.326c-0.193-0.217-0.289-0.469-0.289-0.758v-2.853
			c0-0.289,0.096-0.542,0.289-0.759c0.192-0.217,0.421-0.324,0.686-0.324h12.422c0.481,0,0.776,0.187,0.885,0.559
			c0.108,0.374,0.163,0.766,0.163,1.174c0,3.299-0.735,6.013-2.203,8.143c-1.469,2.131-3.587,3.702-6.355,4.713
			c-0.698,0.265-1.408,0.428-2.13,0.488C624.788,218.068,624.054,218.1,623.308,218.1z"/>
		<path fill="#A6A8AB" d="M641.651,217.666c-0.265,0-0.493-0.108-0.686-0.325c-0.193-0.216-0.289-0.47-0.289-0.759v-24.229
			c0-0.289,0.096-0.542,0.289-0.759c0.192-0.217,0.421-0.325,0.686-0.325h3.178c0.265,0,0.493,0.108,0.687,0.325
			c0.192,0.217,0.289,0.47,0.289,0.759v24.229c0,0.314-0.091,0.572-0.271,0.777s-0.415,0.307-0.704,0.307H641.651z"/>
		<path fill="#A6A8AB" d="M666.964,208.133c0,1.565-0.221,2.961-0.663,4.189c-0.442,1.227-1.07,2.269-1.883,3.123
			s-1.783,1.511-2.911,1.968c-1.129,0.457-2.379,0.687-3.751,0.687c-1.589,0-2.973-0.332-4.152-0.993
			c-1.18-0.662-2.274-1.679-3.286-3.052c-0.12-0.168-0.247-0.366-0.379-0.596c-0.133-0.229-0.198-0.451-0.198-0.668
			c0-0.265,0.048-0.451,0.144-0.56c0.097-0.108,0.241-0.222,0.434-0.343c0.12-0.072,0.337-0.193,0.65-0.361
			c0.313-0.168,0.644-0.33,0.993-0.487c0.349-0.156,0.68-0.301,0.992-0.434c0.313-0.132,0.529-0.198,0.65-0.198
			c0.24,0,0.47,0.139,0.687,0.415c0.216,0.276,0.475,0.577,0.776,0.903c0.301,0.324,0.661,0.625,1.083,0.902
			c0.421,0.277,0.957,0.415,1.606,0.415c0.891,0,1.607-0.156,2.148-0.47c0.542-0.313,0.957-0.74,1.246-1.281
			c0.289-0.542,0.476-1.174,0.56-1.896c0.084-0.722,0.127-1.504,0.127-2.347v-14.733c0-0.313,0.089-0.571,0.269-0.775
			c0.179-0.205,0.412-0.308,0.699-0.308h3.191c0.263,0,0.489,0.108,0.681,0.325s0.287,0.469,0.287,0.758V208.133z"/>
		<path fill="#A6A8AB" d="M673.752,217.666c-0.265,0-0.493-0.108-0.686-0.325c-0.193-0.216-0.289-0.47-0.289-0.759v-24.229
			c0-0.289,0.096-0.542,0.289-0.759c0.192-0.217,0.421-0.325,0.686-0.325h3.178c0.265,0,0.493,0.108,0.687,0.325
			c0.192,0.217,0.289,0.47,0.289,0.759v24.229c0,0.314-0.091,0.572-0.271,0.777s-0.415,0.307-0.704,0.307H673.752z"/>
	</g>
	<g>
		<path fill="#8BC53F" d="M398.36,179.602c0.192,0,0.319,0.059,0.38,0.181c0.059,0.12,0.089,0.253,0.089,0.396v3.322
			c0,0.313-0.078,0.607-0.235,0.885c-0.156,0.276-0.366,0.499-0.631,0.669l-6.753,4.08c-0.266,0.145-0.565,0.216-0.902,0.216
			c-0.169,0-0.324-0.012-0.47-0.036c-0.145-0.024-0.277-0.084-0.396-0.18l-6.681-4.045c-0.265-0.168-0.481-0.391-0.65-0.668
			c-0.168-0.276-0.253-0.571-0.253-0.885v-3.43c0-0.121,0.036-0.242,0.108-0.361c0.072-0.121,0.192-0.181,0.361-0.181
			c0.144,0,0.415,0.114,0.813,0.343c0.396,0.229,0.86,0.511,1.39,0.848c0.529,0.338,1.097,0.705,1.698,1.103
			s1.174,0.764,1.715,1.101c0.542,0.337,1.021,0.62,1.444,0.849c0.421,0.229,0.729,0.343,0.921,0.343
			c0.361,0,0.661-0.084,0.902-0.252c0.145-0.098,0.416-0.271,0.813-0.524c0.396-0.251,0.844-0.542,1.336-0.866
			c0.493-0.324,1.023-0.656,1.589-0.993c0.564-0.337,1.083-0.649,1.553-0.938s0.878-0.523,1.228-0.704
			C398.076,179.691,398.288,179.602,398.36,179.602z"/>
	</g>
</g>
</svg>
