<svg fill="none" viewBox="0 0 150 53" xmlns="http://www.w3.org/2000/svg"><g fill="#191818"><path d="m27.9024 18.7157 5.071 20.1251h-12.293l-3.6376-17.0594h-.2281l-2.9767 17.0594h-11.50719l6.7808-38.8258464h11.52049l-2.7003 15.4031464h.2747l8.2142-15.4031464h11.9401z"/><path d="m66.2689 23.6993c-1.5982 9.1574-5.0711 16.2312-15.8757 16.2312-8.6571 0-13.1737-4.9339-13.1737-11.7892.0154-1.5087.1624-3.0133.4395-4.4967l4.1287-23.63632974h11.6371l-3.9689 22.81322974c-.2198 1.2604-.3863 2.3038-.3863 3.18 0 1.7556.666 2.852 2.151 2.852 2.4806 0 3.0866-2.3038 3.7475-6.032l3.9673-22.81322974h11.5205z"/><path d="m94.1053 22.2733 3.6926 16.5625h-12.1815l-2.096-14.1477h-1.4334l-2.4806 14.1477h-11.0161l6.7808-38.82585127h13.4967c7.5516 0 11.6872 3.72822127 11.6872 10.91305127 0 5.5915-2.3709 9.5946-6.4497 11.3503zm-7.8246-12.6687h-1.5416l-1.2686 7.1848h1.2136c2.2042 0 4.2436-1.1594 4.2436-4.3874-.005-2.2492-1.5482-2.79574-2.6504-2.79574z"/><path d="m112.019 38.8341h-11.686l6.78-38.82582974h11.687z"/><path d="m143.384 22.2733 3.692 16.5625h-12.181l-2.094-14.1477h-1.434l-2.48 14.1477h-11.018l6.779-38.82585127h13.507c7.551 0 11.685 3.72822127 11.685 10.91305127-.007 5.5915-2.377 9.5946-6.456 11.3503zm-7.825-12.6687h-1.541l-1.267 7.1848h1.212c2.206 0 4.245-1.1594 4.245-4.3874-.005-2.2492-1.548-2.79574-2.652-2.79574z"/></g><path d="m0 52.8807 1.58824-9.0961h11.52056l-1.5883 9.0961z" fill="#f00"/></svg>